<?xml version="1.0" standalone="no"?>
<!DOCTYPE svg PUBLIC "-//W3C//DTD SVG 20010904//EN"
 "http://www.w3.org/TR/2001/REC-SVG-20010904/DTD/svg10.dtd">
<svg version="1.0" xmlns="http://www.w3.org/2000/svg"
 width="260.000000pt" height="260.000000pt" viewBox="0 0 260.000000 260.000000"
 preserveAspectRatio="xMidYMid meet">
<metadata>
Created by potrace 1.11, written by Peter Selinger 2001-2013
</metadata>
<g transform="translate(0.000000,260.000000) scale(0.100000,-0.100000)"
fill="#000000" stroke="none">
<path d="M1060 2551 c-553 -107 -963 -541 -1031 -1092 -11 -87 -7 -297 6 -359
2 -14 10 -50 17 -80 6 -30 12 -57 13 -60 0 -3 9 -30 19 -60 121 -359 418 -662
774 -789 45 -16 82 -27 82 -25 0 2 12 -1 28 -7 62 -24 200 -42 322 -42 625 -1
1163 461 1254 1078 17 114 13 337 -8 434 -98 451 -409 806 -837 953 -66 23
-106 34 -204 54 -16 3 -100 8 -185 10 -121 2 -176 -1 -250 -15z"/>
</g>
</svg>
